<?xml version="1.0" standalone="no"?>
<!DOCTYPE svg PUBLIC "-//W3C//DTD SVG 20010904//EN"
 "http://www.w3.org/TR/2001/REC-SVG-20010904/DTD/svg10.dtd">
<svg version="1.0" xmlns="http://www.w3.org/2000/svg"
 width="120.000000pt" height="120.000000pt" viewBox="0 0 120.000000 120.000000"
 preserveAspectRatio="xMidYMid meet">
<metadata>
Created by potrace 1.11, written by Peter Selinger 2001-2013
</metadata>
<g transform="translate(0.000000,120.000000) scale(0.100000,-0.100000)"
fill="#000000" stroke="none">
<path d="M330 1176 c4 -11 42 -102 84 -201 42 -99 100 -235 128 -302 45 -108
68 -145 68 -114 0 5 13 38 29 73 16 35 38 84 50 111 12 26 31 68 42 95 12 26
33 72 46 102 14 30 31 69 38 86 49 108 75 166 75 169 0 1 -128 2 -284 3 l-285
0 9 -22z"/>
<path d="M85 1029 c-4 -5 140 -295 418 -844 39 -77 70 -143 69 -147 -1 -3 5
-11 13 -18 11 -9 18 -4 33 27 11 21 21 43 22 48 1 6 6 15 11 21 10 12 40 69
214 409 71 138 159 307 196 378 37 70 64 128 60 128 -3 1 -62 2 -130 3 -112 1
-126 0 -143 -18 -10 -11 -18 -26 -18 -33 0 -7 -4 -21 -10 -31 -14 -25 -90
-192 -90 -197 0 -2 -18 -43 -40 -90 -22 -47 -40 -88 -40 -89 0 -2 -12 -29 -26
-61 l-26 -57 -14 28 c-7 16 -31 74 -54 129 -23 55 -47 114 -55 130 -7 17 -33
77 -58 135 -25 58 -50 116 -56 130 -12 25 -13 25 -142 25 -72 0 -132 -2 -134
-6z"/>
</g>
</svg>
